<svg xmlns="http://www.w3.org/2000/svg" width="88.418" height="56.447" viewBox="0 0 88.418 56.447"><g transform="translate(0 0.006)"><g transform="translate(0 -0.006)"><g transform="translate(0)"><g transform="translate(1.717 0)" opacity="0.75"><path d="M118.332,51.332a.275.275,0,0,0,.086-.034c-.12-.039-.215-.077-.288-.108A.7.7,0,0,0,118.332,51.332Z" transform="translate(-69.029 -29.166)" fill="#8b7547"/><path d="M158.249,11.634h0a.151.151,0,0,1,0-.034Z" transform="translate(-91.889 -6.607)" fill="#8b7547"/><path d="M6.2,34.01Z" transform="translate(-5.249 -19.377)" fill="#8b7547"/><path d="M35.95,38.22Z" transform="translate(-22.202 -21.776)" fill="#8b7547"/><path d="M36.72,30.84Z" transform="translate(-22.64 -17.571)" fill="#8b7547"/><path d="M124.85,75.522A.275.275,0,0,0,125,75.47Z" transform="translate(-72.859 -43.002)" fill="#8b7547"/><path d="M119.34,35.237l.219-.108C119.495,35.095,119.422,35.112,119.34,35.237Z" transform="translate(-69.719 -20.006)" fill="#8b7547"/><path d="M125.39,109.884h0v0Z" transform="translate(-73.166 -62.609)" fill="#8b7547"/><path d="M82.15,24.685A27.837,27.837,0,0,0,76.7,23.248c.1-.49.465-.7.71-.989,2.74-3.2,5.3-6.5,6.534-10.621a8.135,8.135,0,0,0-4.6-10.169A19.053,19.053,0,0,0,75.28.315a11.968,11.968,0,0,0-5.506,0A30.758,30.758,0,0,0,64.5,2.083a3.084,3.084,0,0,0-.835.232,1.506,1.506,0,0,1,.03.194l-.336.181a.615.615,0,0,1-.241-.069,8.9,8.9,0,0,0-2.151,1.652,48.787,48.787,0,0,0-7.515,7.618,2.8,2.8,0,0,1-.753.989c-1.63,2.379-3.17,4.814-4.65,7.287a3.441,3.441,0,0,1-.654,1.161,20.472,20.472,0,0,1-1.527,2.96,3.011,3.011,0,0,1-.615,1.23h0c-.46,1.08-.912,2.151-1.394,3.231-.723,1.609-.9,1.291-2.3.86-1.691-.538-2.289-1.6-9.7-.546,3.652.3,7.227.3,10.621,2.71.155.215.542.6.607.572a19.547,19.547,0,0,1,3.325,4.4,1.811,1.811,0,0,1-.06.288,20.627,20.627,0,0,1,3.192,8.8,18.317,18.317,0,0,1-.108,4.874A2.294,2.294,0,0,1,47.6,52.917a35.028,35.028,0,0,1-5.889.89c-.6.065-.68-.366-.71-.822a19.552,19.552,0,0,1,2.185-10.5,9.167,9.167,0,0,1,.985-1.759,1.028,1.028,0,0,0,.185-.391c-.163-.749-.65-.478-1.05-.3a10.957,10.957,0,0,0-2.379,1.721,1.721,1.721,0,0,0-.176.219,2.06,2.06,0,0,1-.146.228.933.933,0,0,1,.348-.189,1.514,1.514,0,0,1-.637.753.86.86,0,0,1,.116-.357c-.133.142-.271.275-.43.43a21.268,21.268,0,0,0-3.717,8.728c-.564,2.551-.533,2.555-3.11,2.151-.555-.1-1.9.047-1.837-1.79a29.846,29.846,0,0,1,.86-5.111c.077-.344.749-3.046.727-2.826a9.721,9.721,0,0,1,3.106-4.551.86.86,0,0,0,.465-.65l-.056.026c-.077-.189-.258-.181-.43-.219l-.779.241A.293.293,0,0,0,35.3,38.6l-.138.052C30.051,41.014,29,42.8,27.852,48.082c-.052.994-.43,1.936-.43,2.934,0,.224-.065.473-.4.344a14.53,14.53,0,0,0-1.192-1.011c-4.194-2.332-5.055-13.017-4.986-14.575.03-.77-.133-.942-.921-.787a14.023,14.023,0,0,1-6.423,0,5.994,5.994,0,0,1-4.53-4.345,6.142,6.142,0,0,1,1.854-6.526,8.978,8.978,0,0,1,3.011-1.807c2.775-1,5.5-1.209,7.98.809A.387.387,0,0,0,22,22.727h0a4.732,4.732,0,0,0-4.091-2.8c-.49.43-1.067.095-1.4-.1s-.12-.779.142-1.187c.327-.512.112-1.321.86-1.622-.112-.262-.344-.568.215-.576-.086-.189-.28-.379-.047-.594a1.9,1.9,0,0,0,.555-1.291.5.5,0,0,1,.65-.5c-.28-.4-.095-.736.176-1.045.564-.628.684-1.536,1.394-2.086-.533,0-.688.615-1.2.559-.241.7-.288,1.519-1.192,1.764a15.827,15.827,0,0,1-2.151,4.336h0a2.254,2.254,0,0,1-1.226,2.581c-.86.348-1.751.4-2.6.705-.245.086-.508.125-.675-.155-.172.077-.3.142-.473-.082A30.24,30.24,0,0,0,5.285,15.2a2.151,2.151,0,0,1-.344-.576l-.908-.245c-.155.43.142.538.383.693a24.641,24.641,0,0,1,5.665,5.205c.361.43.546.86.163,1.291a4.078,4.078,0,0,1-2.039,1.493h0a4.405,4.405,0,0,0-1.118,1.695,10.555,10.555,0,0,0-.71,5.377,7.915,7.915,0,0,0,6.883,7.1,31.4,31.4,0,0,0,4.5.194c.43,0,.761,0,.7.615a23.614,23.614,0,0,0,.43,6.225h0a11.942,11.942,0,0,1,.757,2.418l.43.938h0a3.11,3.11,0,0,1,.787,1.42h0a15.383,15.383,0,0,0,5.468,4.926,26.294,26.294,0,0,0,5.33,1.919,1.553,1.553,0,0,1,1.015.2h0a6.693,6.693,0,0,1,.779.034,36.549,36.549,0,0,0,14.716-1.153h0a7.472,7.472,0,0,1,4.9-.34c.228.06.572.482.774-.069a11.86,11.86,0,0,1-1.97-5.162c-.047-.465-.047-.809.589-.521,1.837.83,3.682,1.643,5.528,2.465a9.352,9.352,0,0,1,2.306.83h0c.387.3.86.172,1.291.3a30.263,30.263,0,0,0,11.722,1.2,21.216,21.216,0,0,0,12.131-5.437.921.921,0,0,0,.594-.632l.357-.357a2.732,2.732,0,0,1,.826-1h0c.232-.353.456-.718.7-1.063a14.2,14.2,0,0,0,2.547-10.9C89.708,29.4,86.533,26.5,82.15,24.685ZM27.629,51.326c-.052.305-.194.895-.684.25.705-.065.478-.667.551-1.041a8.7,8.7,0,0,1,.594-2.517C27.943,49.119,27.818,50.229,27.629,51.326ZM49.435,35.839c-.284,0-.348-.206-.43-.366a10.974,10.974,0,0,0-3.988-3.842c-.723-.4-.731-.761-.361-1.437,1.94-3.523,3.76-7.111,6.023-10.44h0a2.151,2.151,0,0,1,.628-.989,23.341,23.341,0,0,1,2.319-3.519h0a4.5,4.5,0,0,1,1-1.385h0a1.239,1.239,0,0,1,.611-.774A30.4,30.4,0,0,1,62.9,6.178h0a7.158,7.158,0,0,1,2.3-1.359h0a1.037,1.037,0,0,1,.86-.383,6.427,6.427,0,0,1,2.5-1h0a6.577,6.577,0,0,1,2.581-.585h0a10.087,10.087,0,0,1,8.9,2.465c1.63,1.5,1.833,3.51,1.385,5.541a16.626,16.626,0,0,1-3.166,6.556,30.814,30.814,0,0,1-4.3,5.3,1.256,1.256,0,0,1-.43.2h0a9.133,9.133,0,0,1-2.379.409c-2.233.615-4.521,1.015-6.719,1.755-4.667,1.57-9.034,3.618-12.51,7.27a18.007,18.007,0,0,0-2.486,3.467ZM71.1,25.326c0,.43-.305.581-.521.749a125.066,125.066,0,0,1-14.334,9.421h0a1.583,1.583,0,0,1-.86.533,9.137,9.137,0,0,1-2.637,1.217c-.211.06-.478.125-.628-.095s0-.43.133-.628a10.652,10.652,0,0,1,1.755-2.073h0a2.34,2.34,0,0,1,.761-.813h0a4.87,4.87,0,0,1,1.179-1.123h0A6.935,6.935,0,0,1,57.767,31.1a28.949,28.949,0,0,1,9.1-4.68,23.893,23.893,0,0,1,4.233-1.1ZM86.942,41.892a17.377,17.377,0,0,1-12.535,9.464,21.509,21.509,0,0,1-8.376.039h0a17.969,17.969,0,0,1-4.181-.774h0a4.053,4.053,0,0,1-1.721-.43,6.6,6.6,0,0,1-2.095-.727.176.176,0,0,1-.095-.047l-.4-.189h0a1.751,1.751,0,0,1-.955-.387,7.644,7.644,0,0,1-2.151-1l-2.026-.912a.723.723,0,0,1-.452-.68c-.077-1.291-.181-2.581-.271-3.872h0c-.194-.723-.361-1.45-.594-2.151-.142-.43.069-.581.43-.68.86-.237,1.686-.49,2.529-.736l5.627-2.783h0a1.794,1.794,0,0,1,1.058-.581c2.654-1.966,5.455-3.721,8-5.829,1.51-1.256,3.011-2.5,4.5-3.786a2.013,2.013,0,0,1,1.407-.551,15.056,15.056,0,0,1,10.647,4.3c3.016,2.878,3.8,8.1,1.66,12.312Z" transform="translate(-3.99 0.006)" fill="#8b7547"/></g><path d="M114.336,51.332a.327.327,0,0,0,.086-.034c-.12-.039-.215-.077-.293-.108a.723.723,0,0,0,.206.142Z" transform="translate(-65.033 -29.166)" fill="#e2d7c9"/><path d="M154.26,11.62h0v0Z" transform="translate(-87.9 -6.593)" fill="#e2d7c9"/><path d="M2.2,34.01h0Z" transform="translate(-1.253 -19.377)" fill="#e2d7c9"/><path d="M31.96,38.22Z" transform="translate(-18.211 -21.776)" fill="#e2d7c9"/><path d="M32.73,30.84Z" transform="translate(-18.65 -17.571)" fill="#e2d7c9"/><path d="M120.86,75.522A.25.25,0,0,0,121,75.47Z" transform="translate(-68.868 -43.002)" fill="#e2d7c9"/><path d="M115.35,35.237l.219-.108C115.5,35.095,115.432,35.112,115.35,35.237Z" transform="translate(-65.728 -20.006)" fill="#e2d7c9"/><path d="M121.4,109.884h0v0Z" transform="translate(-69.176 -62.609)" fill="#e2d7c9"/><path d="M78.159,24.685A27.876,27.876,0,0,0,72.7,23.248c.108-.49.469-.7.714-.989,2.74-3.2,5.3-6.5,6.534-10.621a8.135,8.135,0,0,0-4.6-10.169A19.053,19.053,0,0,0,71.289.315a11.968,11.968,0,0,0-5.506,0,30.633,30.633,0,0,0-5.274,1.768,3.084,3.084,0,0,0-.835.232,1.506,1.506,0,0,1,.03.194l-.34.181a.658.658,0,0,1-.241-.069,9.065,9.065,0,0,0-2.151,1.652,48.95,48.95,0,0,0-7.511,7.618,2.8,2.8,0,0,1-.753.989c-1.63,2.379-3.17,4.814-4.65,7.287a3.523,3.523,0,0,1-.654,1.161,20.494,20.494,0,0,1-1.531,2.96,2.985,2.985,0,0,1-.611,1.23h0c-.465,1.08-.912,2.151-1.394,3.231-.723,1.609-.9,1.291-2.3.86-1.691-.538-2.289-1.6-9.7-.546,3.652.3,7.223.3,10.621,2.71.155.215.542.6.607.572a19.406,19.406,0,0,1,3.321,4.4,1.419,1.419,0,0,1-.056.288,20.627,20.627,0,0,1,3.192,8.8,18.317,18.317,0,0,1-.108,4.874,2.294,2.294,0,0,1-1.833,2.207,35.012,35.012,0,0,1-5.893.89c-.594.065-.675-.366-.705-.822a19.513,19.513,0,0,1,2.185-10.5,9.167,9.167,0,0,1,.985-1.759,1.028,1.028,0,0,0,.185-.391c-.163-.749-.654-.478-1.05-.3a10.957,10.957,0,0,0-2.379,1.721,1.721,1.721,0,0,0-.176.219,1.609,1.609,0,0,1-.151.228.99.99,0,0,1,.353-.189,1.544,1.544,0,0,1-.641.753.92.92,0,0,1,.116-.357c-.129.142-.271.275-.4.43a21.268,21.268,0,0,0-3.717,8.728c-.568,2.551-.538,2.555-3.11,2.151-.555-.1-1.9.047-1.841-1.79a30.19,30.19,0,0,1,.86-5.111c.077-.344.749-3.046.727-2.826a9.684,9.684,0,0,1,3.106-4.551.86.86,0,0,0,.465-.65l-.056.026c-.077-.189-.258-.181-.43-.219l-.774.241a.293.293,0,0,0,.069-.237l-.142.052c-5.111,2.362-6.16,4.143-7.313,9.43-.047.994-.43,1.936-.43,2.934,0,.224-.065.473-.4.344a13.9,13.9,0,0,0-1.2-1.011c-4.19-2.332-5.072-13.017-5-14.575.034-.77-.129-.942-.916-.787a14.023,14.023,0,0,1-6.423,0,5.988,5.988,0,0,1-4.53-4.345,6.135,6.135,0,0,1,1.854-6.526A8.978,8.978,0,0,1,9.842,22.31c2.775-1,5.5-1.209,7.976.809a.387.387,0,0,0,.194-.391h0a4.732,4.732,0,0,0-4.091-2.8c-.49.43-1.067.095-1.4-.1s-.12-.779.142-1.187c.327-.512.112-1.321.86-1.622-.112-.262-.344-.568.215-.576-.086-.189-.28-.379-.047-.594a1.9,1.9,0,0,0,.551-1.291.5.5,0,0,1,.654-.5c-.28-.4-.095-.736.176-1.045.564-.628.68-1.536,1.394-2.086-.533,0-.693.615-1.2.559-.241.7-.288,1.519-1.192,1.764a15.827,15.827,0,0,1-2.151,4.336h0A2.254,2.254,0,0,1,10.7,20.163c-.86.348-1.755.4-2.6.705-.245.086-.508.125-.675-.155-.172.077-.305.142-.473-.082A30.134,30.134,0,0,0,1.29,15.2a2.151,2.151,0,0,1-.34-.576L.043,14.39c-.155.43.138.538.383.693a24.727,24.727,0,0,1,5.665,5.192c.357.43.542.86.163,1.291a4.071,4.071,0,0,1-2.043,1.493h0a4.405,4.405,0,0,0-1.118,1.695,10.6,10.6,0,0,0-.714,5.377,7.924,7.924,0,0,0,6.883,7.1,31.484,31.484,0,0,0,4.5.194c.43,0,.761,0,.7.615a22.919,22.919,0,0,0,.452,6.225h0a11.942,11.942,0,0,1,.757,2.418l.43.938h0a3.08,3.08,0,0,1,.774,1.415h0a15.383,15.383,0,0,0,5.468,4.926,26.2,26.2,0,0,0,5.33,1.919,1.553,1.553,0,0,1,1.015.2h0a6.694,6.694,0,0,1,.779.034,36.549,36.549,0,0,0,14.716-1.153h0a7.472,7.472,0,0,1,4.9-.34c.228.06.568.482.774-.069a11.86,11.86,0,0,1-1.97-5.162c-.052-.465-.047-.809.589-.521,1.837.83,3.682,1.643,5.528,2.465a9.258,9.258,0,0,1,2.3.83h0c.391.3.86.172,1.316.3a30.259,30.259,0,0,0,11.722,1.2,21.191,21.191,0,0,0,12.127-5.437.921.921,0,0,0,.6-.632l.357-.357a2.65,2.65,0,0,1,.826-1h0c.232-.353.452-.718.7-1.063a14.2,14.2,0,0,0,2.547-10.9C85.718,29.4,82.543,26.5,78.159,24.685ZM23.66,51.326c-.052.305-.194.895-.684.25.705-.065.478-.667.546-1.041a8.846,8.846,0,0,1,.6-2.517C23.952,49.119,23.827,50.229,23.66,51.326ZM45.466,35.839c-.284,0-.353-.206-.43-.366a10.931,10.931,0,0,0-3.983-3.842c-.723-.4-.736-.761-.361-1.437,1.94-3.523,3.755-7.111,6.023-10.44h0a2.151,2.151,0,0,1,.628-.989,23.368,23.368,0,0,1,2.323-3.519h0a4.5,4.5,0,0,1,1-1.385h0a1.26,1.26,0,0,1,.615-.774,30.4,30.4,0,0,1,7.662-6.909h0a7.158,7.158,0,0,1,2.3-1.359h0a1.032,1.032,0,0,1,.86-.383,6.453,6.453,0,0,1,2.461-1h0a6.6,6.6,0,0,1,2.581-.585h0a10.1,10.1,0,0,1,8.909,2.465c1.63,1.5,1.833,3.51,1.385,5.541a16.691,16.691,0,0,1-3.17,6.556,30.59,30.59,0,0,1-4.3,5.3,1.338,1.338,0,0,1-.43.2h0a9.133,9.133,0,0,1-2.379.409c-2.233.615-4.521,1.015-6.719,1.755-4.667,1.57-9.034,3.618-12.51,7.27a18.007,18.007,0,0,0-2.486,3.467ZM67.108,25.326c0,.43-.305.581-.521.749A125.821,125.821,0,0,1,52.254,35.5h0a1.583,1.583,0,0,1-.86.533,9.189,9.189,0,0,1-2.637,1.217c-.215.06-.478.125-.632-.095s0-.43.138-.628a10.651,10.651,0,0,1,1.755-2.073h0a2.34,2.34,0,0,1,.761-.813h0a4.87,4.87,0,0,1,1.179-1.123h0A6.883,6.883,0,0,1,53.772,31.1a28.949,28.949,0,0,1,9.1-4.68A23.8,23.8,0,0,1,67.108,25.326ZM82.947,41.892a17.385,17.385,0,0,1-12.54,9.464,21.509,21.509,0,0,1-8.371.039h0a18.068,18.068,0,0,1-4.186-.774h0a4.038,4.038,0,0,1-1.721-.43,6.56,6.56,0,0,1-2.095-.727.176.176,0,0,1-.095-.047l-.4-.189h0a1.721,1.721,0,0,1-.955-.387,7.644,7.644,0,0,1-2.151-1l-2.026-.912a.723.723,0,0,1-.43-.68c-.077-1.291-.181-2.581-.275-3.872h0c-.194-.723-.361-1.45-.589-2.151-.146-.43.069-.581.43-.68.86-.237,1.691-.49,2.534-.736L55.7,36.024h0a1.794,1.794,0,0,1,1.058-.581c2.65-1.966,5.455-3.721,8-5.829,1.51-1.256,3.011-2.5,4.508-3.786a2,2,0,0,1,1.4-.551,15.056,15.056,0,0,1,10.651,4.3c2.994,2.878,3.781,8.1,1.643,12.312Z" transform="translate(0 0.006)" fill="#e2d7c9"/></g></g></g></svg>